<?xml version="1.0" encoding="utf-8"?>
<!-- Generator: Adobe Illustrator 23.0.3, SVG Export Plug-In . SVG Version: 6.00 Build 0)  -->
<svg version="1.1" id="圖層_1" xmlns="http://www.w3.org/2000/svg" xmlns:xlink="http://www.w3.org/1999/xlink" x="0px" y="0px"
	 viewBox="0 0 770.1 345" style="enable-background:new 0 0 770.1 345;" xml:space="preserve">
<style type="text/css">
	.st0{fill:#CA293C;}
	.st1{fill:#2D3066;}
	.st2{fill:none;stroke:#2D3066;stroke-width:5.1786;stroke-miterlimit:10;}
</style>
<g>
	<path class="st0" d="M199.8,321.7c-82.6,0-149.6-67-149.6-149.6c0-82.6,67-149.6,149.6-149.6c47.5,0,89.9,22.2,117.3,56.8
		c-30.6-47.5-83.8-79-144.5-79C77.7,0.3,0.8,77.2,0.8,172.1c0,94.9,76.9,171.8,171.8,171.8c60.7,0,113.9-31.5,144.5-78.9
		C289.6,299.5,247.3,321.7,199.8,321.7z"/>
	<path class="st0" d="M180.1,52.8c44.4,0,83.1,23.7,104,59.1h39.7c-22.4-45.9-69.5-77.6-124-77.6c-55,0-102.5,32.3-124.6,78.9
		C96,77.2,135.1,52.8,180.1,52.8z"/>
	<path class="st1" d="M417.5,213.1v-43.7c0-9.6,3.5-17.9,10.3-24.6c6.8-6.8,15.1-10.2,24.7-10.1l68,0.2c9.7,0,17.9,3.5,24.7,10.3
		c6.8,6.8,10.2,15.1,10.2,24.7l-0.1,43.6c0,9.6-3.5,17.9-10.3,24.6c-6.8,6.8-15.1,10.1-24.7,10.1l-67.8,0c-9.7,0-17.9-3.5-24.7-10.3
		C420.9,231,417.5,222.8,417.5,213.1z M529.1,213.2l0.1-43.6c0-2.3-0.9-4.4-2.6-6.1c-1.7-1.7-3.8-2.6-6.1-2.6l-68,0
		c-2,0-3.9,1-5.9,2.9c-1.9,1.9-2.9,3.9-2.9,5.8l0,43.7c0,2.3,0.9,4.4,2.6,6.1c1.7,1.7,3.8,2.6,6.1,2.6l67.9-0.1
		c2.4,0,4.5-0.8,6.2-2.5C528.2,217.7,529.1,215.6,529.1,213.2z"/>
	<path class="st1" d="M305.3,246.3c-9.7,0-17.9-3.4-24.7-10.3c-6.8-6.8-10.2-15-10.2-24.7l0.1-43.6c0-9.6,3.5-17.9,10.3-24.6
		c6.8-6.8,15.1-10.2,24.8-10.1l95.8,0.2l0,26.1l-95.9-0.1c-2.3,0-4.4,0.9-6.1,2.6c-1.8,1.7-2.6,3.8-2.6,6.1l-0.1,43.6
		c0,2.3,0.9,4.4,2.6,6.1c1.8,1.8,3.8,2.6,6.1,2.6l96,0l0,26.1L305.3,246.3z"/>
	<path class="st1" d="M628,247.2V160l-26.3-0.1l0,87.2l-26.2,0l0.1-113.1l96.1,0c9.7,0,17.9,3.4,24.7,10.3
		c6.8,6.8,10.2,15,10.2,24.7l-0.2,78.4l-26-0.1l0-78.5c0-2.4-0.8-4.5-2.5-6.2c-1.7-1.7-3.8-2.5-6.2-2.6h-17.5l-0.1,87.1L628,247.2z"
		/>
	<polygon class="st1" points="251.9,219.7 181.9,219.7 261,132.9 121.3,132.9 121.3,158.8 199.9,158.8 121.1,245.8 251.9,245.8 	"/>
</g>
<g>
	<circle class="st2" cx="739.5" cy="94.6" r="28"/>
	<g>
		<path class="st1" d="M728.7,81.7h14.5c4.8,0,7.9,3.4,7.9,7.4c0,3.2-1.3,5.6-4.3,6.8V96c2.9,0.8,3.7,3.6,3.9,6.3
			c0.1,1.7,0.1,4.9,1.1,6.4H746c-0.7-1.7-0.6-4.3-0.9-6.5c-0.4-2.8-1.5-4.1-4.5-4.1h-5.9v10.5h-5.9V81.7z M734.7,93.9h6.5
			c2.6,0,4.1-1.1,4.1-3.9c0-2.6-1.4-3.7-4.1-3.7h-6.5V93.9z"/>
	</g>
</g>
</svg>
